<svg width="151" height="23" viewBox="0 0 151 23" fill="none" xmlns="http://www.w3.org/2000/svg">
<g clip-path="url(#clip0)">
<path d="M98.5624 0.530135H86.2079C86.0706 0.530135 86.002 0.596418 86.002 0.728983C85.6588 6.09786 84.6292 11.9307 83.1192 16.6368V16.8356C83.1879 16.9019 83.2565 16.9019 83.3251 16.9019H87.5806C87.6492 16.9019 87.7865 16.8356 87.7865 16.7693C88.9533 13.1238 89.9142 8.35146 90.2574 4.30823H94.307V16.703C94.307 16.8356 94.3756 16.9019 94.5129 16.9019H98.5624C98.6997 16.9019 98.7683 16.8356 98.7683 16.703V0.795265C98.7683 0.6627 98.6997 0.530135 98.5624 0.530135ZM150.795 0.530135H146.745C146.608 0.530135 146.539 0.596418 146.539 0.728983V13.0575C145.647 13.3226 144.755 13.3889 143.794 13.3889C141.117 13.3889 140.499 12.5935 140.499 9.14685V0.795265C140.499 0.6627 140.431 0.596418 140.293 0.596418H136.244C136.107 0.596418 136.038 0.6627 136.038 0.795265V9.67711C136.038 15.2448 137.96 17.4321 142.97 17.4321C145.784 17.4321 149.01 16.703 150.863 16.0402C150.932 16.0402 151.001 15.9077 151.001 15.8414V0.795265C151.001 0.6627 150.932 0.530135 150.795 0.530135ZM65.3424 0.596418H61.2242C61.087 0.596418 61.0183 0.6627 61.0183 0.728983C60.4006 3.18143 59.0965 7.29094 57.312 11.5993L53.1938 0.6627C53.1938 0.596418 53.0565 0.530135 52.9879 0.530135H48.8697C48.8011 0.530135 48.7324 0.596418 48.6638 0.596418C48.5951 0.6627 48.5951 0.728983 48.6638 0.795265L54.8411 17.1007C54.2233 18.3601 53.6056 19.4206 53.0565 20.4149C52.6447 21.144 52.2329 21.8731 51.8211 22.6685C51.7524 22.7347 51.8211 22.801 51.8211 22.8673C51.8897 22.9336 51.9583 22.9999 52.027 22.9999H56.4883C56.557 22.9999 56.6256 22.9336 56.6942 22.8673C57.4492 21.4754 58.4101 19.4869 59.3024 17.4984C61.9106 11.533 64.0383 5.96529 65.617 0.861547C65.617 0.795265 65.617 0.728983 65.5483 0.6627C65.4797 0.596418 65.4111 0.596418 65.3424 0.596418ZM80.0306 13.1238C80.0306 13.0575 79.962 12.9912 79.8933 12.9912H79.6874C78.7265 13.3226 76.8733 13.6541 75.5692 13.6541C72.7551 13.6541 71.4511 12.9249 71.4511 8.74915C71.4511 5.43503 71.8629 3.84426 75.5692 3.84426C76.5988 3.84426 77.6283 3.97682 78.8638 4.37452C79.0011 4.37452 79.0697 4.37452 79.1383 4.24195C79.6188 3.38028 80.1679 2.38604 80.7856 1.06039V0.861547C80.7856 0.795265 80.717 0.728983 80.6483 0.728983C79.0011 0.198723 77.0106 -0.0664062 75.2947 -0.0664062C69.392 -0.0664062 66.7838 2.58489 66.7838 8.61659C66.7838 14.7146 69.392 17.4321 75.2947 17.4321C76.7361 17.4321 79.6874 17.1007 81.0601 16.5705C81.1974 16.5042 81.1974 16.4379 81.1974 16.3053L80.0306 13.1238ZM118.398 0.596418H114.28C114.212 0.596418 114.074 0.6627 114.074 0.728983C113.457 3.18143 112.152 7.29094 110.368 11.5993L106.25 0.6627C106.25 0.596418 106.112 0.530135 106.044 0.530135H101.926C101.857 0.530135 101.788 0.596418 101.72 0.596418C101.651 0.6627 101.651 0.728983 101.72 0.795265L107.897 17.1007C107.279 18.3601 106.662 19.3543 106.112 20.4149C105.701 21.144 105.289 21.8731 104.877 22.6685C104.808 22.7347 104.877 22.801 104.877 22.8673C104.946 22.9336 105.014 22.9999 105.083 22.9999H109.544C109.613 22.9999 109.682 22.9336 109.75 22.8673C110.505 21.4754 111.466 19.4869 112.358 17.4984C114.967 11.533 117.094 5.96529 118.604 0.861547C118.604 0.795265 118.604 0.728983 118.536 0.6627C118.536 0.596418 118.467 0.596418 118.398 0.596418ZM133.498 0.530135H121.556C121.418 0.530135 121.35 0.596418 121.35 0.728983V16.703C121.35 16.8356 121.418 16.9019 121.556 16.9019H125.605C125.742 16.9019 125.811 16.8356 125.811 16.703V4.37452H132.057C132.126 4.37452 132.263 4.30823 132.263 4.24195C132.743 3.18143 133.224 1.98835 133.704 0.861547V0.6627C133.636 0.596418 133.567 0.530135 133.498 0.530135Z" fill="#EE3F58"/>
<path d="M21.4832 13.7867C18.8064 13.7867 17.9827 13.0576 17.9827 8.74928C17.9827 4.10951 18.875 3.71182 21.4832 3.71182C24.0914 3.71182 25.0523 4.10951 25.0523 8.74928C25.0523 13.1239 24.16 13.7867 21.4832 13.7867ZM21.4832 0.0662824C15.6491 0.0662824 13.3841 2.45245 13.3841 8.683C13.3841 14.9798 15.6491 17.4323 21.4832 17.4323C27.3173 17.4323 29.6509 14.9798 29.6509 8.683C29.6509 2.51873 27.3173 0.0662824 21.4832 0.0662824ZM45.7118 13.1239C45.7118 13.0576 45.6432 12.9914 45.5745 12.9914H45.3686C44.4077 13.3228 42.5545 13.6542 41.2505 13.6542C38.4364 13.6542 37.1323 12.9251 37.1323 8.74928C37.1323 5.43516 37.5441 3.84438 41.2505 3.84438C42.28 3.84438 43.3095 3.97694 44.545 4.37464C44.6136 4.37464 44.7509 4.37464 44.8195 4.24207C45.3 3.3804 45.8491 2.38617 46.4668 1.06052V0.861671C46.4668 0.795389 46.3982 0.729107 46.3295 0.729107C44.7509 0.26513 42.7605 0 41.0445 0C35.1418 0 32.5336 2.6513 32.5336 8.683C32.5336 14.781 35.1418 17.4986 41.0445 17.4986C42.4859 17.4986 45.4373 17.1671 46.81 16.6369C46.9473 16.5706 46.9473 16.5043 46.9473 16.3718L45.7118 13.1239ZM12.1486 0.530259H0.205909C0.0686364 0.530259 0 0.662824 0 0.795389V16.7695C0 16.902 0.0686364 16.9683 0.205909 16.9683H4.25545C4.39273 16.9683 4.46136 16.902 4.46136 16.7695V4.37464H10.7073C10.7759 4.37464 10.8445 4.30836 10.9132 4.24207C11.3936 3.18156 11.8741 1.98847 12.3545 0.861671V0.662824C12.2859 0.596542 12.2173 0.530259 12.1486 0.530259Z" fill="white"/>
</g>
<defs>
<clipPath id="clip0">
<rect width="151" height="23" fill="white"/>
</clipPath>
</defs>
</svg>
